# xmcd
#
# Track frame offsets: 
#        150
#        20100
#        29664
#        48970
#        66485
#        80809
#        94356
#        116227
#        135822
#        148111
#        164810
#        184324
#        204064
#        225497
#        239423
#
# Disc length: 3366 seconds
#
# Revision: 0
# Processed by: cddbd v1.5.2PL0 Copyright (c) Steve Scherf et al.
# Submitted via: ExactAudioCopy v0.99pb5
#
DISCID=df0d240f
DTITLE=Various Artist - House Of The Rising Rat Vol.1
DYEAR=2006
DGENRE=Folk/Rock
TTITLE0=Charles Campbell-Jones - Stars
TTITLE1=Dan Sartain - Baby's Town
TTITLE2=Seasick Steve And The Level Devils - Sorry Mr.Jesus
TTITLE3=The Gemma Ray Ritual - One Gold Shilling
TTITLE4=Brown Magic - Big Baby Bear
TTITLE5=Richard Swift - The Novelist
TTITLE6=Miasma And The Carousel Of Headless Horses - Asmodius Arise
TTITLE7=Simon Breed - The Brother Song
TTITLE8=Heavy Contact - Fickel Mind
TTITLE9=The Joel Plaskett Emergency - Written All Over Me
TTITLE10=Charles Campbell-Jones - Winter Palace
TTITLE11=The Gemma Ray Ritual - From The Teeth
TTITLE12=Gallon Drunk - Mrs. Gallon Drunks Big Night Out
TTITLE13=London Firesky - Good Shepherd Gone Bad
TTITLE14=Chicano - Rose By Any Other Name
EXTD=
EXTT0=
EXTT1=
EXTT2=
EXTT3=
EXTT4=
EXTT5=
EXTT6=
EXTT7=
EXTT8=
EXTT9=
EXTT10=
EXTT11=
EXTT12=
EXTT13=
EXTT14=
PLAYORDER=
